<svg width="27" height="23" viewBox="0 0 27 23" fill="none" xmlns="http://www.w3.org/2000/svg">
<path d="M22.5 23H4.5C3.30652 23 2.16193 22.5404 1.31802 21.7224C0.474105 20.9043 0 19.7948 0 18.6379V4.36207C0 3.20518 0.474105 2.09567 1.31802 1.27762C2.16193 0.459578 3.30652 4.57109e-06 4.5 4.57109e-06H8.5909C8.76628 -0.00046052 8.93983 0.0345702 9.10044 0.102855C9.26105 0.171139 9.40519 0.271173 9.52363 0.396556L14.0563 5.53587H22.5C23.0923 5.53586 23.6788 5.64921 24.2258 5.86942C24.7729 6.08963 25.2697 6.41235 25.6878 6.81909C26.1058 7.22583 26.437 7.70857 26.6621 8.23963C26.8873 8.7707 27.0021 9.33963 27 9.9138V18.6379C27 19.7948 26.5259 20.9043 25.682 21.7224C24.838 22.5404 23.6934 23 22.5 23ZM4.5 2.37931C3.95751 2.37931 3.43724 2.58821 3.05364 2.96005C2.67005 3.33189 2.45454 3.83621 2.45454 4.36207V18.6379C2.45454 19.1638 2.67005 19.6681 3.05364 20.04C3.43724 20.4118 3.95751 20.6207 4.5 20.6207H22.5C23.0425 20.6207 23.5627 20.4118 23.9463 20.04C24.3299 19.6681 24.5454 19.1638 24.5454 18.6379V9.9138C24.5454 9.38794 24.3299 8.88361 23.9463 8.51177C23.5627 8.13994 23.0425 7.93104 22.5 7.93104H13.5C13.3234 7.9295 13.1491 7.89199 12.9884 7.82094C12.8277 7.74989 12.6842 7.64689 12.5673 7.51862L8.03454 2.37931H4.5Z" fill="black"/>
</svg>
