<svg width="32" height="28" viewBox="0 0 32 28" fill="none" xmlns="http://www.w3.org/2000/svg">
<path d="M26.6666 27.7895H5.33333C3.91884 27.7895 2.56229 27.2342 1.5621 26.2458C0.561902 25.2574 0 23.9169 0 22.5191V5.27042C0 3.87262 0.561902 2.53207 1.5621 1.54367C2.56229 0.55528 3.91884 5.52297e-06 5.33333 5.52297e-06H10.1818C10.3897 -0.000556418 10.5954 0.0417691 10.7857 0.124273C10.9761 0.206777 11.1469 0.327642 11.2873 0.479134L16.6594 6.68864H26.6666C27.3687 6.68864 28.0638 6.82559 28.7121 7.09166C29.3604 7.35772 29.9492 7.74765 30.4447 8.23908C30.9402 8.73052 31.3327 9.31379 31.5996 9.95544C31.8665 10.5971 32.0025 11.2845 32 11.9782V22.5191C32 23.9169 31.4381 25.2574 30.4379 26.2458C29.4377 27.2342 28.0811 27.7895 26.6666 27.7895ZM5.33333 2.87478C4.69038 2.87478 4.07376 3.12718 3.61913 3.57645C3.1645 4.02572 2.90909 4.63506 2.90909 5.27042V22.5191C2.90909 23.1544 3.1645 23.7638 3.61913 24.213C4.07376 24.6623 4.69038 24.9147 5.33333 24.9147H26.6666C27.3096 24.9147 27.9262 24.6623 28.3808 24.213C28.8355 23.7638 29.0909 23.1544 29.0909 22.5191V11.9782C29.0909 11.3429 28.8355 10.7335 28.3808 10.2842C27.9262 9.83498 27.3096 9.58258 26.6666 9.58258H16C15.7907 9.58072 15.5841 9.5354 15.3937 9.44956C15.2032 9.36372 15.0332 9.23927 14.8945 9.08429L9.52241 2.87478H5.33333Z" fill="black"/>
</svg>
